<svg width="40" height="40" viewBox="0 0 40 40" fill="none" xmlns="http://www.w3.org/2000/svg">
<path d="M20.0002 27.7571C21.7135 27.7571 23.1616 27.1661 24.3446 25.9842C25.5276 24.8023 26.1191 23.3542 26.1191 21.6399C26.1191 19.9255 25.5276 18.4774 24.3446 17.2955C23.1616 16.1136 21.7135 15.5221 20.0002 15.521C18.287 15.5199 16.8389 16.1114 15.6559 17.2955C14.4729 18.4796 13.8814 19.9277 13.8814 21.6399C13.8814 23.352 14.4729 24.8002 15.6559 25.9842C16.8389 27.1683 18.287 27.7598 20.0002 27.7587M20.0002 26.1187C18.7265 26.1187 17.6616 25.6907 16.8055 24.8346C15.9494 23.9785 15.5214 22.9136 15.5214 21.6399C15.5214 20.3661 15.9494 19.3012 16.8055 18.4452C17.6616 17.5891 18.7265 17.161 20.0002 17.161C21.274 17.161 22.3389 17.5891 23.195 18.4452C24.051 19.3012 24.4791 20.3661 24.4791 21.6399C24.4791 22.9136 24.051 23.9785 23.195 24.8346C22.3389 25.6907 21.274 26.1187 20.0002 26.1187ZM7.89047 33.1199C7.13498 33.1199 6.50467 32.8673 5.99955 32.3622C5.49443 31.8571 5.24133 31.2262 5.24023 30.4696V12.8101C5.24023 12.0546 5.49334 11.4243 5.99955 10.9192C6.50577 10.4141 7.13553 10.161 7.88883 10.1599H12.74L15.774 6.87988H24.2265L27.2605 10.1599H32.1116C32.866 10.1599 33.4958 10.413 34.0009 10.9192C34.506 11.4254 34.7591 12.0557 34.7602 12.8101V30.4713C34.7602 31.2257 34.5071 31.856 34.0009 32.3622C33.4947 32.8684 32.8649 33.121 32.1116 33.1199H7.89047Z" fill="#C0C5C7"/>
</svg>
