<svg width="25" height="24" viewBox="0 0 25 24" fill="none" xmlns="http://www.w3.org/2000/svg">
<path d="M19.4615 19.9995C17.7761 19.9995 15.4811 20.2015 13.7105 19.3575C11.9398 18.5135 10.2918 17.3285 8.76646 15.8025C7.25312 14.2772 6.07446 12.6322 5.23046 10.8675C4.38646 9.10285 4.53146 6.75418 4.53146 5.06951C4.53146 4.76951 4.63146 4.51618 4.83146 4.30951C5.03146 4.10284 5.28146 3.99951 5.58146 3.99951H8.05446C8.32646 3.99951 8.56379 4.08518 8.76646 4.25651C8.96912 4.42785 9.10612 4.64751 9.17746 4.91551L9.67346 7.29951C9.72012 7.57951 9.71179 7.82385 9.64846 8.03251C9.58512 8.24118 9.47412 8.41218 9.31546 8.54551L7.12146 10.5915C7.53212 11.3362 7.98579 12.0282 8.48246 12.6675C8.97912 13.3068 9.50912 13.9125 10.0725 14.4845C10.6525 15.0645 11.2771 15.6045 11.9465 16.1045C12.6158 16.6038 13.3505 17.0752 14.1505 17.5185L16.2895 15.3415C16.4521 15.1662 16.6351 15.0505 16.8385 14.9945C17.0411 14.9392 17.2658 14.9282 17.5125 14.9615L19.6155 15.3915C19.8875 15.4582 20.1081 15.5952 20.2775 15.8025C20.4468 16.0098 20.5315 16.2472 20.5315 16.5145V18.9495C20.5315 19.2495 20.4281 19.4995 20.2215 19.6995C20.0148 19.8995 19.7615 19.9995 19.4615 19.9995Z" stroke="#808993"/>
</svg>
