<svg width="25" height="25" viewBox="0 0 25 25" fill="none" xmlns="http://www.w3.org/2000/svg">
<path d="M12.5316 20.3735C14.4116 18.7375 15.8976 17.0739 16.9896 15.3825C18.0816 13.6912 18.6276 12.2279 18.6276 10.9925C18.6276 9.1632 18.0486 7.6532 16.8906 6.46253C15.7312 5.27253 14.2782 4.67753 12.5316 4.67753C10.7849 4.67753 9.33189 5.27253 8.17255 6.46253C7.01322 7.65253 6.43422 9.16253 6.43555 10.9925C6.43555 12.2272 6.98155 13.6905 8.07355 15.3825C9.16555 17.0745 10.6516 18.7382 12.5316 20.3735ZM12.5316 21.2525C12.3749 21.2525 12.2182 21.2269 12.0616 21.1755C11.9049 21.1242 11.7609 21.0409 11.6296 20.9255C10.9182 20.2715 10.1969 19.5432 9.46555 18.7405C8.73489 17.9385 8.07155 17.1075 7.47555 16.2475C6.87955 15.3875 6.39022 14.5099 6.00755 13.6145C5.62489 12.7192 5.43422 11.8452 5.43555 10.9925C5.43555 8.8772 6.12422 7.13253 7.50155 5.75853C8.87955 4.38387 10.5562 3.69653 12.5316 3.69653C14.5069 3.69653 16.1836 4.38387 17.5616 5.75853C18.9389 7.13253 19.6276 8.8772 19.6276 10.9925C19.6276 11.8452 19.4369 12.7162 19.0556 13.6055C18.6742 14.4942 18.1882 15.3715 17.5976 16.2375C17.0076 17.1042 16.3472 17.9355 15.6166 18.7315C14.8859 19.5275 14.1642 20.2525 13.4516 20.9065C13.3242 21.0219 13.1796 21.1085 13.0176 21.1665C12.8549 21.2239 12.6926 21.2525 12.5306 21.2525M12.5346 12.4275C12.9792 12.4275 13.3592 12.2689 13.6746 11.9515C13.9892 11.6349 14.1466 11.2539 14.1466 10.8085C14.1466 10.3632 13.9879 9.9832 13.6706 9.66853C13.3532 9.35387 12.9722 9.19653 12.5276 9.19653C12.0829 9.19653 11.7029 9.3552 11.3876 9.67253C11.0722 9.98987 10.9149 10.3709 10.9156 10.8155C10.9162 11.2602 11.0746 11.6402 11.3906 11.9555C11.7066 12.2709 12.0879 12.4282 12.5346 12.4275Z" fill="#808993"/>
</svg>
