<svg width="25" height="24" viewBox="0 0 25 24" fill="none" xmlns="http://www.w3.org/2000/svg">
<path d="M18.9619 19.9995C17.2766 19.9995 14.9816 20.2015 13.2109 19.3575C11.4403 18.5135 9.79228 17.3285 8.26694 15.8025C6.75361 14.2772 5.57494 12.6322 4.73094 10.8675C3.88694 9.10285 4.03194 6.75418 4.03194 5.06951C4.03194 4.76951 4.13194 4.51618 4.33194 4.30951C4.53194 4.10284 4.78194 3.99951 5.08194 3.99951H7.55494C7.82694 3.99951 8.06428 4.08518 8.26694 4.25651C8.46961 4.42785 8.60661 4.64751 8.67794 4.91551L9.17394 7.29951C9.22061 7.57951 9.21228 7.82385 9.14894 8.03251C9.08561 8.24118 8.97461 8.41218 8.81594 8.54551L6.62194 10.5915C7.03261 11.3362 7.48628 12.0282 7.98294 12.6675C8.47961 13.3068 9.00961 13.9125 9.57294 14.4845C10.1529 15.0645 10.7776 15.6045 11.4469 16.1045C12.1163 16.6038 12.8509 17.0752 13.6509 17.5185L15.7899 15.3415C15.9526 15.1662 16.1356 15.0505 16.3389 14.9945C16.5416 14.9392 16.7663 14.9282 17.0129 14.9615L19.1159 15.3915C19.3879 15.4582 19.6086 15.5952 19.7779 15.8025C19.9473 16.0098 20.0319 16.2472 20.0319 16.5145V18.9495C20.0319 19.2495 19.9286 19.4995 19.7219 19.6995C19.5153 19.8995 19.2619 19.9995 18.9619 19.9995Z" stroke="#6075FF"/>
</svg>
