<svg width="36" height="36" viewBox="0 0 36 36" fill="none" xmlns="http://www.w3.org/2000/svg">
<path d="M15.162 18.0001L21.531 24.3691C21.671 24.5091 21.746 24.6816 21.756 24.8866C21.766 25.0896 21.691 25.2711 21.531 25.4311C21.371 25.5911 21.194 25.6711 21 25.6711C20.806 25.6711 20.629 25.5911 20.469 25.4311L13.887 18.8476C13.756 18.7176 13.664 18.5841 13.611 18.4471C13.558 18.3111 13.5315 18.1621 13.5315 18.0001C13.5315 17.8381 13.558 17.6891 13.611 17.5531C13.664 17.4171 13.756 17.2836 13.887 17.1526L20.469 10.5691C20.609 10.4291 20.781 10.3541 20.985 10.3441C21.189 10.3341 21.371 10.4091 21.531 10.5691C21.691 10.7291 21.771 10.9061 21.771 11.1001C21.771 11.2941 21.691 11.4711 21.531 11.6311L15.162 18.0001Z" fill="#121212"/>
</svg>
