<svg width="25" height="25" viewBox="0 0 25 25" fill="none" xmlns="http://www.w3.org/2000/svg">
<path d="M6.14749 21.3025C5.68683 21.3025 5.30249 21.1485 4.99449 20.8405C4.68649 20.5325 4.53216 20.1481 4.53149 19.6875V6.91748C4.53149 6.45748 4.68583 6.07348 4.99449 5.76548C5.30316 5.45748 5.68749 5.30315 6.14749 5.30248H7.91649V3.61048C7.91649 3.45515 7.96749 3.32648 8.06949 3.22448C8.17149 3.12248 8.29983 3.07148 8.45449 3.07148C8.60916 3.07148 8.73783 3.12248 8.84049 3.22448C8.94316 3.32648 8.99416 3.45515 8.99349 3.61048V5.30248H16.1475V3.57248C16.1475 3.42981 16.1952 3.31048 16.2905 3.21448C16.3858 3.11848 16.5048 3.07081 16.6475 3.07148C16.7902 3.07215 16.9088 3.11981 17.0035 3.21448C17.0982 3.30915 17.1462 3.42815 17.1475 3.57148V5.30248H18.9165C19.3765 5.30248 19.7608 5.45681 20.0695 5.76548C20.3782 6.07415 20.5322 6.45848 20.5315 6.91848V19.6875C20.5315 20.1475 20.3775 20.5318 20.0695 20.8405C19.7615 21.1491 19.3768 21.3031 18.9155 21.3025H6.14749ZM6.14749 20.3025H18.9165C19.0698 20.3025 19.2108 20.2385 19.3395 20.1105C19.4682 19.9825 19.5322 19.8411 19.5315 19.6865V10.9185H5.53149V19.6875C5.53149 19.8408 5.59549 19.9818 5.72349 20.1105C5.85149 20.2391 5.99249 20.3031 6.14649 20.3025M5.53149 9.91748H19.5315V6.91748C19.5315 6.76415 19.4675 6.62315 19.3395 6.49448C19.2115 6.36581 19.0702 6.30181 18.9155 6.30248H6.14749C5.99349 6.30248 5.85216 6.36648 5.72349 6.49448C5.59483 6.62248 5.53083 6.76381 5.53149 6.91848V9.91748ZM12.5315 14.4565C12.3248 14.4565 12.1448 14.3798 11.9915 14.2265C11.8382 14.0731 11.7615 13.8931 11.7615 13.6865C11.7615 13.4798 11.8382 13.3001 11.9915 13.1475C12.1448 12.9948 12.3248 12.9181 12.5315 12.9175C12.7382 12.9168 12.9182 12.9935 13.0715 13.1475C13.2248 13.3015 13.3015 13.4815 13.3015 13.6875C13.3015 13.8935 13.2248 14.0731 13.0715 14.2265C12.9182 14.3798 12.7382 14.4565 12.5315 14.4565ZM8.53149 14.4565C8.32483 14.4565 8.14483 14.3798 7.99149 14.2265C7.83816 14.0731 7.76149 13.8931 7.76149 13.6865C7.76149 13.4798 7.83816 13.3001 7.99149 13.1475C8.14483 12.9948 8.32483 12.9181 8.53149 12.9175C8.73816 12.9168 8.91816 12.9935 9.07149 13.1475C9.22483 13.3015 9.30149 13.4815 9.30149 13.6875C9.30149 13.8935 9.22483 14.0731 9.07149 14.2265C8.91816 14.3798 8.73816 14.4565 8.53149 14.4565ZM16.5315 14.4565C16.3248 14.4565 16.1448 14.3798 15.9915 14.2265C15.8382 14.0731 15.7615 13.8931 15.7615 13.6865C15.7615 13.4798 15.8382 13.3001 15.9915 13.1475C16.1448 12.9948 16.3248 12.9181 16.5315 12.9175C16.7382 12.9168 16.9182 12.9935 17.0715 13.1475C17.2248 13.3015 17.3015 13.4815 17.3015 13.6875C17.3015 13.8935 17.2248 14.0731 17.0715 14.2265C16.9182 14.3798 16.7382 14.4565 16.5315 14.4565ZM12.5315 18.3025C12.3248 18.3025 12.1448 18.2258 11.9915 18.0725C11.8382 17.9191 11.7615 17.7391 11.7615 17.5325C11.7615 17.3258 11.8382 17.1461 11.9915 16.9935C12.1448 16.8408 12.3248 16.7641 12.5315 16.7635C12.7382 16.7628 12.9182 16.8395 13.0715 16.9935C13.2248 17.1475 13.3015 17.3275 13.3015 17.5335C13.3015 17.7395 13.2248 17.9195 13.0715 18.0735C12.9182 18.2275 12.7382 18.3038 12.5315 18.3025ZM8.53149 18.3025C8.32483 18.3025 8.14483 18.2258 7.99149 18.0725C7.83816 17.9191 7.76149 17.7391 7.76149 17.5325C7.76149 17.3258 7.83816 17.1461 7.99149 16.9935C8.14483 16.8408 8.32483 16.7641 8.53149 16.7635C8.73816 16.7628 8.91816 16.8395 9.07149 16.9935C9.22483 17.1475 9.30149 17.3275 9.30149 17.5335C9.30149 17.7395 9.22483 17.9195 9.07149 18.0735C8.91816 18.2275 8.73816 18.3038 8.53149 18.3025ZM16.5315 18.3025C16.3248 18.3025 16.1448 18.2258 15.9915 18.0725C15.8382 17.9191 15.7615 17.7391 15.7615 17.5325C15.7615 17.3258 15.8382 17.1461 15.9915 16.9935C16.1448 16.8408 16.3248 16.7641 16.5315 16.7635C16.7382 16.7628 16.9182 16.8395 17.0715 16.9935C17.2248 17.1475 17.3015 17.3275 17.3015 17.5335C17.3015 17.7395 17.2248 17.9195 17.0715 18.0735C16.9182 18.2275 16.7382 18.3038 16.5315 18.3025Z" fill="#808993"/>
</svg>
