<svg width="16" height="16" viewBox="0 0 16 16" fill="none" xmlns="http://www.w3.org/2000/svg">
<path d="M3.74384 14C3.43673 14 3.1805 13.8973 2.97517 13.692C2.76984 13.4866 2.66695 13.2304 2.6665 12.9233V4.40995C2.6665 4.10329 2.76939 3.84729 2.97517 3.64195C3.18095 3.43662 3.43717 3.33373 3.74384 3.33329H4.92317V2.20529C4.92317 2.10173 4.95717 2.01595 5.02517 1.94795C5.09317 1.87995 5.17873 1.84595 5.28184 1.84595C5.38495 1.84595 5.47073 1.87995 5.53917 1.94795C5.60762 2.01595 5.64162 2.10173 5.64117 2.20529V3.33329H10.4105V2.17995C10.4105 2.08484 10.4423 2.00529 10.5058 1.94129C10.5694 1.87729 10.6487 1.84551 10.7438 1.84595C10.8389 1.8464 10.9181 1.87817 10.9812 1.94129C11.0443 2.0044 11.0763 2.08373 11.0772 2.17929V3.33329H12.2565C12.5632 3.33329 12.8194 3.43617 13.0252 3.64195C13.2309 3.84773 13.3336 4.10395 13.3332 4.41062V12.9233C13.3332 13.23 13.2305 13.4862 13.0252 13.692C12.8198 13.8977 12.5634 14.0004 12.2558 14H3.74384ZM3.74384 13.3333H12.2565C12.3587 13.3333 12.4527 13.2906 12.5385 13.2053C12.6243 13.12 12.6669 13.0257 12.6665 12.9226V7.07729H3.33317V12.9233C3.33317 13.0255 3.37584 13.1195 3.46117 13.2053C3.5465 13.2911 3.6405 13.3337 3.74317 13.3333M3.33317 6.40995H12.6665V4.40995C12.6665 4.30773 12.6238 4.21373 12.5385 4.12795C12.4532 4.04217 12.3589 3.99951 12.2558 3.99995H3.74384C3.64117 3.99995 3.54695 4.04262 3.46117 4.12795C3.37539 4.21329 3.33273 4.30751 3.33317 4.41062V6.40995ZM7.99984 9.43595C7.86206 9.43595 7.74206 9.38484 7.63984 9.28262C7.53762 9.1804 7.4865 9.0604 7.4865 8.92262C7.4865 8.78484 7.53762 8.66506 7.63984 8.56329C7.74206 8.46151 7.86206 8.4104 7.99984 8.40995C8.13762 8.40951 8.25762 8.46062 8.35984 8.56329C8.46206 8.66595 8.51317 8.78595 8.51317 8.92329C8.51317 9.06062 8.46206 9.1804 8.35984 9.28262C8.25762 9.38484 8.13762 9.43595 7.99984 9.43595ZM5.33317 9.43595C5.19539 9.43595 5.07539 9.38484 4.97317 9.28262C4.87095 9.1804 4.81984 9.0604 4.81984 8.92262C4.81984 8.78484 4.87095 8.66506 4.97317 8.56329C5.07539 8.46151 5.19539 8.4104 5.33317 8.40995C5.47095 8.40951 5.59095 8.46062 5.69317 8.56329C5.79539 8.66595 5.8465 8.78595 5.8465 8.92329C5.8465 9.06062 5.79539 9.1804 5.69317 9.28262C5.59095 9.38484 5.47095 9.43595 5.33317 9.43595ZM10.6665 9.43595C10.5287 9.43595 10.4087 9.38484 10.3065 9.28262C10.2043 9.1804 10.1532 9.0604 10.1532 8.92262C10.1532 8.78484 10.2043 8.66506 10.3065 8.56329C10.4087 8.46151 10.5287 8.4104 10.6665 8.40995C10.8043 8.40951 10.9243 8.46062 11.0265 8.56329C11.1287 8.66595 11.1798 8.78595 11.1798 8.92329C11.1798 9.06062 11.1287 9.1804 11.0265 9.28262C10.9243 9.38484 10.8043 9.43595 10.6665 9.43595ZM7.99984 12C7.86206 12 7.74206 11.9488 7.63984 11.8466C7.53762 11.7444 7.4865 11.6244 7.4865 11.4866C7.4865 11.3488 7.53762 11.2291 7.63984 11.1273C7.74206 11.0255 7.86206 10.9744 7.99984 10.974C8.13762 10.9735 8.25762 11.0246 8.35984 11.1273C8.46206 11.23 8.51317 11.35 8.51317 11.4873C8.51317 11.6246 8.46206 11.7446 8.35984 11.8473C8.25762 11.95 8.13762 12.0008 7.99984 12ZM5.33317 12C5.19539 12 5.07539 11.9488 4.97317 11.8466C4.87095 11.7444 4.81984 11.6244 4.81984 11.4866C4.81984 11.3488 4.87095 11.2291 4.97317 11.1273C5.07539 11.0255 5.19539 10.9744 5.33317 10.974C5.47095 10.9735 5.59095 11.0246 5.69317 11.1273C5.79539 11.23 5.8465 11.35 5.8465 11.4873C5.8465 11.6246 5.79539 11.7446 5.69317 11.8473C5.59095 11.95 5.47095 12.0008 5.33317 12ZM10.6665 12C10.5287 12 10.4087 11.9488 10.3065 11.8466C10.2043 11.7444 10.1532 11.6244 10.1532 11.4866C10.1532 11.3488 10.2043 11.2291 10.3065 11.1273C10.4087 11.0255 10.5287 10.9744 10.6665 10.974C10.8043 10.9735 10.9243 11.0246 11.0265 11.1273C11.1287 11.23 11.1798 11.35 11.1798 11.4873C11.1798 11.6246 11.1287 11.7446 11.0265 11.8473C10.9243 11.95 10.8043 12.0008 10.6665 12Z" fill="#6075FF"/>
</svg>
