<svg width="132" height="32" viewBox="0 0 132 32" fill="none" xmlns="http://www.w3.org/2000/svg">
<path d="M2.0565 0.707165H17.0965C17.7685 0.707165 18.1525 1.09116 18.1525 1.76316V4.13116C18.1525 4.80316 17.7685 5.18716 17.0965 5.18716H4.8725V11.9392H16.4565C17.1285 11.9392 17.5125 12.3232 17.5125 12.9952V15.3632C17.5125 16.0352 17.1285 16.4192 16.4565 16.4192H4.8725V24.8032C4.8725 25.4752 4.4885 25.8592 3.8165 25.8592H1.2885C0.6165 25.8592 0.2325 25.4752 0.2325 24.8032V2.56316C0.2325 1.34716 0.8405 0.707165 2.0565 0.707165ZM25.2125 18.3072C25.6605 21.0272 27.1325 22.0192 30.0445 22.0192C32.1245 22.0192 33.3085 21.4752 33.9485 20.3872C34.2365 19.9072 34.4605 19.9072 35.0045 19.9072H37.6925C38.3325 19.9072 38.6525 20.0672 38.5245 20.7072C37.9165 24.1632 34.5245 26.2112 29.9165 26.2112C23.9005 26.2112 20.4125 23.0112 20.4125 16.2592C20.4125 9.50716 23.8365 6.27516 29.5965 6.27516C35.2285 6.27516 38.6205 9.63516 38.6205 15.9072C38.6205 17.5072 37.7885 18.3072 36.0605 18.3072H25.2125ZM33.9485 14.6272C33.8525 11.6512 32.3805 10.4352 29.6605 10.4352C26.9085 10.4352 25.4685 11.6192 25.1485 14.6272H33.9485ZM46.775 18.3072C47.223 21.0272 48.695 22.0192 51.607 22.0192C53.687 22.0192 54.871 21.4752 55.511 20.3872C55.799 19.9072 56.023 19.9072 56.567 19.9072H59.255C59.895 19.9072 60.215 20.0672 60.087 20.7072C59.479 24.1632 56.087 26.2112 51.479 26.2112C45.463 26.2112 41.975 23.0112 41.975 16.2592C41.975 9.50716 45.399 6.27516 51.159 6.27516C56.791 6.27516 60.183 9.63516 60.183 15.9072C60.183 17.5072 59.351 18.3072 57.623 18.3072H46.775ZM55.511 14.6272C55.415 11.6512 53.943 10.4352 51.223 10.4352C48.471 10.4352 47.031 11.6192 46.711 14.6272H55.511ZM68.1135 16.1632C68.1135 19.5872 69.6815 21.7632 72.4335 21.7632C73.9375 21.7632 75.6015 21.1872 76.5615 20.5472V14.3392C76.5615 12.1952 74.9935 10.6912 72.2415 10.6912C69.6815 10.6912 68.1135 12.8992 68.1135 16.1632ZM76.4975 24.8032V23.9712C75.3775 25.2512 73.2975 26.1792 71.3455 26.1792C66.6095 26.1792 63.5375 22.0832 63.5375 16.1312C63.5375 10.1792 66.4495 6.27516 71.2175 6.27516C73.3935 6.27516 75.2175 7.01116 76.4975 8.41916V1.76316C76.4975 1.09116 76.8815 0.707165 77.5535 0.707165H80.0815C80.7535 0.707165 81.1375 1.09116 81.1375 1.76316V24.8032C81.1375 25.4752 80.7535 25.8592 80.0815 25.8592H77.5535C76.8815 25.8592 76.4975 25.4752 76.4975 24.8032ZM105.639 24.0352C104.359 25.4432 102.567 26.1792 100.679 26.1792C95.8788 26.1792 93.3188 23.3632 93.3188 17.9232V7.65116C93.3188 6.97916 93.7028 6.59516 94.3748 6.59516H96.9028C97.5748 6.59516 97.9588 6.97916 97.9588 7.65116V17.5712C97.9588 20.4192 99.2068 21.7632 101.703 21.7632C104.135 21.7632 105.639 20.2592 105.639 18.1152V7.65116C105.639 6.97916 106.023 6.59516 106.695 6.59516H109.223C109.895 6.59516 110.279 6.97916 110.279 7.65116V24.8032C110.279 25.4752 109.895 25.8592 109.223 25.8592H106.695C106.023 25.8592 105.639 25.4752 105.639 24.8032V24.0352ZM126.819 16.2912C126.819 12.8672 125.251 10.6912 122.499 10.6912C120.995 10.6912 119.331 11.2672 118.371 11.9072V18.1152C118.371 20.2592 119.939 21.7632 122.691 21.7632C125.251 21.7632 126.819 19.5552 126.819 16.2912ZM118.435 7.65116V8.48316C119.555 7.20316 121.635 6.27516 123.587 6.27516C128.323 6.27516 131.395 10.3712 131.395 16.3232C131.395 22.2752 128.483 26.1792 123.715 26.1792C121.539 26.1792 119.715 25.4432 118.435 24.0352V30.0512C118.435 30.7232 118.051 31.1072 117.379 31.1072H114.851C114.179 31.1072 113.795 30.7232 113.795 30.0512V7.65116C113.795 6.97916 114.179 6.59516 114.851 6.59516H117.379C118.051 6.59516 118.435 6.97916 118.435 7.65116Z" fill="#1D366F"/>
</svg>
