<svg width="60" height="60" viewBox="0 0 60 60" fill="none" xmlns="http://www.w3.org/2000/svg">
<g clip-path="url(#clip0_297_3513)">
<path d="M27.7041 22.3185L20.5403 29.4822C20.0874 29.9351 19.511 30.1616 18.8111 30.1616C18.1112 30.1616 17.5348 29.9351 17.0819 29.4822C16.629 29.0294 16.4026 28.453 16.4026 27.7531C16.4026 27.0532 16.629 26.4768 17.0819 26.0239L28.4451 14.6606C28.9392 14.1666 29.5156 13.9196 30.1743 13.9196C30.8331 13.9196 31.4095 14.1666 31.9035 14.6606L43.2668 26.0239C43.7196 26.4768 43.9461 27.0532 43.9461 27.7531C43.9461 28.453 43.7196 29.0294 43.2668 29.4822C42.8139 29.9351 42.2375 30.1616 41.5376 30.1616C40.8377 30.1616 40.2613 29.9351 39.8084 29.4822L32.6446 22.3185V42.5747C32.6446 43.2746 32.4075 43.8617 31.9332 44.336C31.4589 44.8103 30.8726 45.0466 30.1743 45.0449C29.4761 45.0433 28.8898 44.8062 28.4155 44.3335C27.9412 43.8609 27.7041 43.2746 27.7041 42.5747V22.3185Z" fill="#6075FF"/>
</g>
<defs>
<clipPath id="clip0_297_3513">
<rect width="59.2864" height="59.2864" fill="white" transform="translate(0.531006 0.580078)"/>
</clipPath>
</defs>
</svg>
