<svg width="86" height="88" viewBox="0 0 86 88" fill="none" xmlns="http://www.w3.org/2000/svg">
<path d="M35.1187 71.9978V69.4978H33.956L33.2069 70.3869L35.1187 71.9978ZM25.0991 83.8884L26.9512 85.5677L26.9816 85.5341L27.0109 85.4994L25.0991 83.8884ZM24.8618 84.1501L26.6506 85.8967L26.6828 85.8636L26.7139 85.8294L24.8618 84.1501ZM17.2944 82.1375L14.8504 82.6636L14.8599 82.7075L14.8709 82.7511L17.2944 82.1375ZM17.2202 81.7927L14.7581 82.2262L14.7663 82.2728L14.7762 82.3189L17.2202 81.7927ZM15.2046 70.3455L17.6667 69.9119L17.4337 68.5888L16.2018 68.0529L15.2046 70.3455ZM63.1743 2.49976V4.99976C72.8393 4.99976 80.6743 12.8348 80.6743 22.4998H83.1743H85.6743C85.6743 10.0733 75.6007 -0.000244141 63.1743 -0.000244141V2.49976ZM83.1743 22.4998H80.6743V51.9978H83.1743H85.6743V22.4998H83.1743ZM83.1743 51.9978H80.6743C80.6743 61.6628 72.8393 69.4978 63.1743 69.4978V71.9978V74.4978C75.6007 74.4978 85.6743 64.4242 85.6743 51.9978H83.1743ZM63.1743 71.9978V69.4978H35.1187V71.9978V74.4978H63.1743V71.9978ZM35.1187 71.9978L33.2069 70.3869L23.1873 82.2775L25.0991 83.8884L27.0109 85.4994L37.0304 73.6087L35.1187 71.9978ZM25.0991 83.8884L23.2471 82.2092L23.0098 82.4709L24.8618 84.1501L26.7139 85.8294L26.9512 85.5677L25.0991 83.8884ZM24.8618 84.1501L23.0731 82.4036C21.986 83.517 20.0879 82.9849 19.718 81.5238L17.2944 82.1375L14.8709 82.7511C16.209 88.0361 22.8611 89.7778 26.6506 85.8967L24.8618 84.1501ZM17.2944 82.1375L19.7384 81.6113L19.6642 81.2665L17.2202 81.7927L14.7762 82.3189L14.8504 82.6636L17.2944 82.1375ZM17.2202 81.7927L19.6823 81.3592L17.6667 69.9119L15.2046 70.3455L12.7425 70.779L14.7581 82.2262L17.2202 81.7927ZM15.2046 70.3455L16.2018 68.0529C10.0018 65.3561 5.67432 59.1798 5.67432 51.9978H3.17432H0.674316C0.674316 61.2413 6.24843 69.176 14.2074 72.638L15.2046 70.3455ZM3.17432 51.9978H5.67432V22.4998H3.17432H0.674316V51.9978H3.17432ZM3.17432 22.4998H5.67432C5.67432 12.8348 13.5093 4.99976 23.1743 4.99976V2.49976V-0.000244141C10.7479 -0.000244141 0.674316 10.0733 0.674316 22.4998H3.17432ZM23.1743 2.49976V4.99976H63.1743V2.49976V-0.000244141H23.1743V2.49976Z" fill="#394ED3"/>
<g clip-path="url(#clip0_429_2426)">
<path d="M40.7041 30.3185L33.5403 37.4822C33.0874 37.9351 32.511 38.1616 31.8111 38.1616C31.1112 38.1616 30.5348 37.9351 30.0819 37.4822C29.629 37.0294 29.4026 36.453 29.4026 35.7531C29.4026 35.0532 29.629 34.4768 30.0819 34.0239L41.4451 22.6606C41.9392 22.1666 42.5156 21.9196 43.1743 21.9196C43.8331 21.9196 44.4095 22.1666 44.9035 22.6606L56.2668 34.0239C56.7196 34.4768 56.9461 35.0532 56.9461 35.7531C56.9461 36.453 56.7196 37.0294 56.2668 37.4822C55.8139 37.9351 55.2375 38.1616 54.5376 38.1616C53.8377 38.1616 53.2613 37.9351 52.8084 37.4822L45.6446 30.3185V50.5747C45.6446 51.2746 45.4075 51.8617 44.9332 52.336C44.4589 52.8103 43.8726 53.0466 43.1743 53.0449C42.4761 53.0433 41.8898 52.8062 41.4155 52.3335C40.9412 51.8609 40.7041 51.2746 40.7041 50.5747V30.3185Z" fill="#6075FF"/>
</g>
<defs>
<clipPath id="clip0_429_2426">
<rect width="59.2864" height="59.2864" fill="white" transform="translate(13.531 8.58008)"/>
</clipPath>
</defs>
</svg>
