<svg width="16" height="16" viewBox="0 0 16 16" fill="none" xmlns="http://www.w3.org/2000/svg">
<path d="M11.9999 8.66536H8.66658V11.9987C8.66658 12.1755 8.59635 12.3451 8.47132 12.4701C8.3463 12.5951 8.17673 12.6654 7.99992 12.6654C7.82311 12.6654 7.65354 12.5951 7.52851 12.4701C7.40349 12.3451 7.33325 12.1755 7.33325 11.9987V8.66536H3.99992C3.82311 8.66536 3.65354 8.59513 3.52851 8.4701C3.40349 8.34508 3.33325 8.17551 3.33325 7.9987C3.33325 7.82189 3.40349 7.65232 3.52851 7.52729C3.65354 7.40227 3.82311 7.33203 3.99992 7.33203H7.33325V3.9987C7.33325 3.82189 7.40349 3.65232 7.52851 3.52729C7.65354 3.40227 7.82311 3.33203 7.99992 3.33203C8.17673 3.33203 8.3463 3.40227 8.47132 3.52729C8.59635 3.65232 8.66658 3.82189 8.66658 3.9987V7.33203H11.9999C12.1767 7.33203 12.3463 7.40227 12.4713 7.52729C12.5963 7.65232 12.6666 7.82189 12.6666 7.9987C12.6666 8.17551 12.5963 8.34508 12.4713 8.4701C12.3463 8.59513 12.1767 8.66536 11.9999 8.66536Z" fill="white"/>
</svg>
