<svg width="25" height="25" viewBox="0 0 25 25" fill="none" xmlns="http://www.w3.org/2000/svg">
<path d="M11.9822 3.65306V2.60463C11.9822 2.46733 12.0368 2.33564 12.1339 2.23855C12.231 2.14146 12.3626 2.08691 12.4999 2.08691C12.6373 2.08691 12.7689 2.14146 12.866 2.23855C12.9631 2.33564 13.0177 2.46733 13.0177 2.60463V3.65306C13.0177 3.79037 12.9631 3.92206 12.866 4.01915C12.7689 4.11624 12.6373 4.17078 12.4999 4.17078C12.3626 4.17078 12.231 4.11624 12.1339 4.01915C12.0368 3.92206 11.9822 3.79037 11.9822 3.65306ZM18.4856 6.16206C18.6229 6.16194 18.7545 6.10732 18.8515 6.0102L19.7687 5.04136C19.8196 4.99396 19.8604 4.93681 19.8887 4.8733C19.917 4.8098 19.9322 4.74124 19.9334 4.67173C19.9346 4.60221 19.9219 4.53316 19.8958 4.4687C19.8698 4.40423 19.831 4.34567 19.7819 4.29651C19.7327 4.24735 19.6741 4.20859 19.6097 4.18255C19.5452 4.15652 19.4762 4.14373 19.4066 4.14495C19.3371 4.14618 19.2686 4.1614 19.2051 4.18969C19.1416 4.21799 19.0844 4.25879 19.037 4.30965L18.1198 5.27849C18.0475 5.35089 17.9982 5.4431 17.9783 5.54347C17.9584 5.64384 17.9686 5.74786 18.0078 5.84241C18.0469 5.93695 18.1132 6.01777 18.1982 6.07467C18.2833 6.13156 18.3833 6.16197 18.4856 6.16206ZM6.21318 5.99199C6.31132 6.08344 6.44113 6.13323 6.57525 6.13086C6.70938 6.1285 6.83735 6.07416 6.9322 5.97931C7.02706 5.88445 7.08139 5.75648 7.08376 5.62236C7.08612 5.48823 7.03634 5.35843 6.94489 5.26028L5.96289 4.30965C5.86474 4.2182 5.73494 4.16842 5.60081 4.17078C5.46669 4.17315 5.33872 4.22748 5.24386 4.32234C5.14901 4.41719 5.09467 4.54516 5.09231 4.67929C5.08994 4.81341 5.13973 4.94322 5.23118 5.04136L6.21318 5.99199ZM13.2765 8.30644C13.2094 8.29511 13.1408 8.2971 13.0745 8.3123C13.0082 8.32751 12.9455 8.35562 12.8901 8.39504C12.7781 8.47466 12.7023 8.59549 12.6794 8.73097C12.6565 8.86645 12.6884 9.00547 12.768 9.11744C12.8476 9.22942 12.9685 9.30519 13.104 9.32807C14.8297 9.61627 16.124 11.1781 16.124 12.959C16.124 13.0963 16.1785 13.228 16.2756 13.3251C16.3727 13.4222 16.5044 13.4767 16.6417 13.4767C16.779 13.4767 16.9107 13.4222 17.0078 13.3251C17.1049 13.228 17.1594 13.0963 17.1594 12.959C17.1594 10.6785 15.4898 8.67834 13.2765 8.30644ZM21.3012 18.2033V19.1716C21.3012 19.492 21.1739 19.7993 20.9473 20.0258C20.7208 20.2524 20.4135 20.3796 20.0932 20.3796H4.90674C4.58636 20.3796 4.27909 20.2524 4.05255 20.0258C3.826 19.7993 3.69873 19.492 3.69873 19.1716V18.2033C3.69873 17.8829 3.826 17.5756 4.05255 17.3491C4.27909 17.1226 4.58636 16.9953 4.90674 16.9953H5.07931V12.959C5.07931 10.9909 5.86113 9.10346 7.25277 7.71183C8.64441 6.32019 10.5319 5.53837 12.4999 5.53837H12.556C16.6167 5.56857 19.9206 8.93633 19.9206 13.0453V16.9953H20.0932C20.4135 16.9953 20.7208 17.1226 20.9473 17.3491C21.1739 17.5756 21.3012 17.8829 21.3012 18.2033ZM6.11475 16.9953H18.8851V13.0453C18.8851 9.50755 16.0429 6.59969 12.5483 6.57381H12.4999C10.8065 6.57381 9.18239 7.24653 7.98493 8.44399C6.78747 9.64145 6.11475 11.2655 6.11475 12.959V16.9953ZM20.2657 18.2033C20.2657 18.1575 20.2475 18.1136 20.2152 18.0813C20.1828 18.0489 20.1389 18.0307 20.0932 18.0307H12.4999H4.90674C4.86097 18.0307 4.81708 18.0489 4.78471 18.0813C4.75235 18.1136 4.73417 18.1575 4.73417 18.2033V19.1716C4.73417 19.2174 4.75235 19.2613 4.78471 19.2937C4.81708 19.326 4.86097 19.3442 4.90674 19.3442H20.0932C20.1389 19.3442 20.1828 19.326 20.2152 19.2937C20.2475 19.2613 20.2657 19.2174 20.2657 19.1716V18.2033Z" fill="#FF4040"/>
</svg>
