<svg width="49" height="48" viewBox="0 0 49 48" fill="none" xmlns="http://www.w3.org/2000/svg">
<path d="M20.5 28.624L32.992 16.092C33.1773 15.9053 33.4127 15.812 33.698 15.812C33.9847 15.812 34.2213 15.9047 34.408 16.09C34.5947 16.2753 34.688 16.5113 34.688 16.798C34.688 17.0847 34.5947 17.3213 34.408 17.508L21.63 30.246C21.3073 30.57 20.9307 30.732 20.5 30.732C20.0693 30.732 19.6927 30.57 19.37 30.246L14.592 25.506C14.4053 25.322 14.312 25.0873 14.312 24.802C14.312 24.5167 14.4047 24.28 14.59 24.092C14.7753 23.904 15.0113 23.8107 15.298 23.812C15.5847 23.8133 15.8213 23.9067 16.008 24.092L20.5 28.624Z" fill="white"/>
</svg>
