<svg width="32" height="33" viewBox="0 0 32 33" fill="none" xmlns="http://www.w3.org/2000/svg">
<path d="M10.8333 9.81391L14.3107 5.18724C14.5222 4.90102 14.7738 4.69124 15.0653 4.55791C15.3569 4.42458 15.6684 4.35791 16 4.35791C16.3316 4.35791 16.6431 4.42458 16.9347 4.55791C17.2262 4.69124 17.4778 4.90058 17.6893 5.18591L21.1667 9.81391L26.5267 11.6379C27.0013 11.7979 27.3667 12.0668 27.6227 12.4446C27.8796 12.8232 28.008 13.241 28.008 13.6979C28.008 13.9086 27.9769 14.1179 27.9147 14.3259C27.8524 14.5339 27.7511 14.7335 27.6107 14.9246L24.0973 19.6886L24.2307 24.7952C24.2529 25.4228 24.0458 25.9512 23.6093 26.3806C23.1729 26.8099 22.6649 27.0246 22.0853 27.0246L21.48 26.9499L16 25.3352L10.52 26.9499C10.4098 26.9944 10.3031 27.0179 10.2 27.0206C10.096 27.0232 10.0009 27.0246 9.91467 27.0246C9.32356 27.0246 8.81244 26.8099 8.38133 26.3806C7.95022 25.9512 7.74622 25.4232 7.76933 24.7966L7.90267 19.6552L4.39733 14.9246C4.256 14.7317 4.15422 14.5304 4.092 14.3206C4.03067 14.1108 4 13.901 4 13.6912C4 13.2415 4.132 12.8228 4.396 12.4352C4.65911 12.0486 5.02711 11.7739 5.5 11.6112L10.8333 9.81391ZM11.672 10.9606L5.94933 12.8886C5.69244 12.9739 5.51689 13.149 5.42267 13.4139C5.32844 13.6788 5.36711 13.9224 5.53867 14.1446L9.26133 19.2646L9.10267 24.8112C9.08489 25.1019 9.18711 25.333 9.40933 25.5046C9.63156 25.6752 9.88 25.7179 10.1547 25.6326L16 23.9526L21.8467 25.6659C22.1196 25.7512 22.3671 25.7086 22.5893 25.5379C22.8116 25.3664 22.9142 25.1352 22.8973 24.8446L22.7373 19.2659L26.4613 14.2126C26.632 13.9904 26.6707 13.7464 26.5773 13.4806C26.4831 13.2157 26.3076 13.0406 26.0507 12.9552L20.328 10.9606L16.6413 6.04991C16.4876 5.82769 16.2738 5.71658 16 5.71658C15.7262 5.71658 15.5129 5.82769 15.36 6.04991L11.672 10.9606Z" fill="#FFC100"/>
</svg>
