<svg width="current" height="current" viewBox="0 0 20 21" fill="none" xmlns="http://www.w3.org/2000/svg">
<path d="M9.9993 15.1386L6.54096 17.2219C6.38819 17.3192 6.22846 17.3608 6.0618 17.3469C5.89513 17.333 5.7493 17.2775 5.6243 17.1803C5.4993 17.083 5.40208 16.9617 5.33263 16.8161C5.26319 16.6705 5.2493 16.5072 5.29096 16.3261L6.20763 12.3886L3.14513 9.74276C3.00624 9.61776 2.91958 9.47526 2.88513 9.31526C2.85069 9.15526 2.86096 8.99915 2.91596 8.84693C2.97096 8.69471 3.0543 8.5697 3.16596 8.47193C3.27763 8.37415 3.43041 8.31165 3.6243 8.28443L7.66596 7.93026L9.22846 4.22192C9.29791 4.05526 9.40569 3.93026 9.5518 3.84692C9.69791 3.76359 9.84707 3.72192 9.9993 3.72192C10.1515 3.72192 10.3007 3.76359 10.4468 3.84692C10.5929 3.93026 10.7007 4.05526 10.7701 4.22192L12.3326 7.93026L16.3743 8.28443C16.5687 8.3122 16.7215 8.3747 16.8326 8.47193C16.9437 8.56915 17.0271 8.69415 17.0826 8.84693C17.1382 8.99971 17.1487 9.15609 17.1143 9.31609C17.0799 9.47609 16.9929 9.61832 16.8535 9.74276L13.791 12.3886L14.7076 16.3261C14.7493 16.5067 14.7354 16.67 14.666 16.8161C14.5965 16.9622 14.4993 17.0836 14.3743 17.1803C14.2493 17.2769 14.1035 17.3325 13.9368 17.3469C13.7701 17.3614 13.6104 17.3197 13.4576 17.2219L9.9993 15.1386Z" fill="#FFC107"/>
</svg>
