<svg xmlns="http://www.w3.org/2000/svg" width="52" height="52" fill="none"><path fill="#FFC107" fill-rule="evenodd" d="m26 34.394 9.475 5.708L32.97 29.34l8.367-7.23-11.058-.968-4.28-10.156-4.278 10.156-11.058.969 8.367 7.229-2.506 10.763L26 34.394Zm-12.242 6.123 2.383-10.238L8.18 23.4c-.361-.325-.587-.695-.676-1.111a2.17 2.17 0 0 1 .08-1.218c.143-.396.36-.72.65-.975.29-.254.688-.417 1.192-.488l10.508-.92 4.063-9.642c.18-.433.46-.758.84-.975.38-.217.768-.325 1.164-.325.395 0 .783.108 1.163.325.38.217.66.542.84.975l4.063 9.642 10.509.92c.505.073.902.235 1.191.488.29.253.506.578.65.975.145.397.172.804.083 1.22-.09.416-.316.785-.678 1.109l-7.963 6.88 2.383 10.237c.109.47.073.894-.108 1.274-.18.38-.433.695-.758.947a2.116 2.116 0 0 1-1.138.433 1.95 1.95 0 0 1-1.246-.325L26 37.429l-8.992 5.417a1.968 1.968 0 0 1-1.246.325 2.094 2.094 0 0 1-1.137-.434 2.6 2.6 0 0 1-.759-.946c-.18-.379-.216-.803-.108-1.274Z" clip-rule="evenodd"/></svg>