<svg width="25" height="25" viewBox="0 0 25 25" fill="none" xmlns="http://www.w3.org/2000/svg">
<g clip-path="url(#clip0_495_1628)">
<path d="M11.9375 1.99752V0.858398C11.9375 0.709214 11.9968 0.56614 12.1023 0.460651C12.2077 0.355162 12.3508 0.295898 12.5 0.295898C12.6492 0.295898 12.7923 0.355162 12.8977 0.460651C13.0032 0.56614 13.0625 0.709214 13.0625 0.858398V1.99752C13.0625 2.1467 13.0032 2.28978 12.8977 2.39526C12.7923 2.50075 12.6492 2.56002 12.5 2.56002C12.3508 2.56002 12.2077 2.50075 12.1023 2.39526C11.9968 2.28978 11.9375 2.1467 11.9375 1.99752ZM19.0034 4.72354C19.1526 4.72341 19.2956 4.66406 19.4009 4.55854L20.3975 3.5059C20.4528 3.4544 20.4971 3.3923 20.5278 3.3233C20.5586 3.2543 20.5751 3.17982 20.5764 3.10429C20.5778 3.02876 20.5639 2.95374 20.5356 2.8837C20.5073 2.81366 20.4652 2.75003 20.4118 2.69662C20.3584 2.64321 20.2947 2.6011 20.2247 2.57281C20.1547 2.54452 20.0796 2.53062 20.0041 2.53195C19.9286 2.53329 19.8541 2.54982 19.7851 2.58056C19.7161 2.61131 19.654 2.65563 19.6025 2.7109L18.6059 3.76354C18.5274 3.8422 18.4739 3.94239 18.4522 4.05144C18.4306 4.16049 18.4417 4.27351 18.4842 4.37623C18.5268 4.47895 18.5988 4.56677 18.6912 4.62858C18.7836 4.6904 18.8923 4.72344 19.0034 4.72354ZM5.66944 4.53876C5.77607 4.63812 5.91711 4.69221 6.06283 4.68964C6.20856 4.68707 6.3476 4.62803 6.45066 4.52497C6.55372 4.42191 6.61275 4.28287 6.61532 4.13715C6.61789 3.99142 6.5638 3.85039 6.46444 3.74376L5.3975 2.7109C5.29087 2.61154 5.14983 2.55745 5.00411 2.56002C4.85838 2.56259 4.71934 2.62162 4.61628 2.72468C4.51322 2.82774 4.45419 2.96678 4.45162 3.11251C4.44905 3.25823 4.50314 3.39927 4.6025 3.5059L5.66944 4.53876ZM13.3438 7.0534C13.2709 7.04109 13.1963 7.04325 13.1242 7.05977C13.0522 7.07629 12.9841 7.10683 12.9238 7.14966C12.8022 7.23616 12.7199 7.36745 12.695 7.51465C12.6701 7.66184 12.7048 7.81289 12.7913 7.93455C12.8778 8.05622 13.0091 8.13853 13.1562 8.1634C15.0312 8.47652 16.4375 10.1734 16.4375 12.1084C16.4375 12.2576 16.4968 12.4007 16.6023 12.5061C16.7077 12.6116 16.8508 12.6709 17 12.6709C17.1492 12.6709 17.2923 12.6116 17.3977 12.5061C17.5032 12.4007 17.5625 12.2576 17.5625 12.1084C17.5625 9.63059 15.7484 7.45746 13.3438 7.0534ZM22.0625 17.8063V18.8584C22.0625 19.2065 21.9242 19.5403 21.6781 19.7865C21.4319 20.0326 21.0981 20.1709 20.75 20.1709H4.25C3.9019 20.1709 3.56806 20.0326 3.32192 19.7865C3.07578 19.5403 2.9375 19.2065 2.9375 18.8584V17.8063C2.9375 17.4582 3.07578 17.1244 3.32192 16.8782C3.56806 16.6321 3.9019 16.4938 4.25 16.4938H4.4375V12.1084C4.4375 9.97009 5.28694 7.91936 6.79895 6.40735C8.31096 4.89534 10.3617 4.0459 12.5 4.0459H12.5609C16.9728 4.07871 20.5625 7.73777 20.5625 12.2021V16.4938H20.75C21.0981 16.4938 21.4319 16.6321 21.6781 16.8782C21.9242 17.1244 22.0625 17.4582 22.0625 17.8063ZM5.5625 16.4938H19.4375V12.2021C19.4375 8.3584 16.3494 5.19902 12.5525 5.1709H12.5C10.6601 5.1709 8.89548 5.90181 7.59445 7.20284C6.29341 8.50388 5.5625 10.2685 5.5625 12.1084V16.4938ZM20.9375 17.8063C20.9375 17.7566 20.9177 17.7089 20.8826 17.6737C20.8474 17.6386 20.7997 17.6188 20.75 17.6188H12.5H4.25C4.20027 17.6188 4.15258 17.6386 4.11742 17.6737C4.08225 17.7089 4.0625 17.7566 4.0625 17.8063V18.8584C4.0625 18.9081 4.08225 18.9558 4.11742 18.991C4.15258 19.0261 4.20027 19.0459 4.25 19.0459H20.75C20.7997 19.0459 20.8474 19.0261 20.8826 18.991C20.9177 18.9558 20.9375 18.9081 20.9375 18.8584V17.8063Z" fill="#1D366F"/>
</g>
<defs>
<clipPath id="clip0_495_1628">
<rect width="24" height="24" fill="white" transform="translate(0.5 0.108398)"/>
</clipPath>
</defs>
</svg>
