<svg width="24" height="24" viewBox="0 0 24 24" fill="none" xmlns="http://www.w3.org/2000/svg">
<circle cx="12" cy="12" r="12" fill="#1D366F"/>
<path d="M16 12.6654H12.6667V15.9987C12.6667 16.1755 12.5964 16.3451 12.4714 16.4701C12.3464 16.5951 12.1768 16.6654 12 16.6654C11.8232 16.6654 11.6536 16.5951 11.5286 16.4701C11.4036 16.3451 11.3333 16.1755 11.3333 15.9987V12.6654H8.00001C7.8232 12.6654 7.65363 12.5951 7.52861 12.4701C7.40358 12.3451 7.33334 12.1755 7.33334 11.9987C7.33334 11.8219 7.40358 11.6523 7.52861 11.5273C7.65363 11.4023 7.8232 11.332 8.00001 11.332H11.3333V7.9987C11.3333 7.82189 11.4036 7.65232 11.5286 7.52729C11.6536 7.40227 11.8232 7.33203 12 7.33203C12.1768 7.33203 12.3464 7.40227 12.4714 7.52729C12.5964 7.65232 12.6667 7.82189 12.6667 7.9987V11.332H16C16.1768 11.332 16.3464 11.4023 16.4714 11.5273C16.5964 11.6523 16.6667 11.8219 16.6667 11.9987C16.6667 12.1755 16.5964 12.3451 16.4714 12.4701C16.3464 12.5951 16.1768 12.6654 16 12.6654Z" fill="white"/>
</svg>
