<svg width="25" height="25" viewBox="0 0 25 25" fill="none" xmlns="http://www.w3.org/2000/svg">
<path d="M6.116 20.1084C5.65533 20.1084 5.271 19.9544 4.963 19.6464C4.655 19.3384 4.50067 18.9537 4.5 18.4924V5.7244C4.5 5.26373 4.65433 4.8794 4.963 4.5714C5.27167 4.2634 5.656 4.10907 6.116 4.1084H18.885C19.345 4.1084 19.7293 4.26273 20.038 4.5714C20.3467 4.88006 20.5007 5.2644 20.5 5.7244V18.4934C20.5 18.9534 20.346 19.3377 20.038 19.6464C19.73 19.9551 19.3453 20.1091 18.884 20.1084H6.116ZM6.116 19.1084H18.885C19.0383 19.1084 19.1793 19.0444 19.308 18.9164C19.4367 18.7884 19.5007 18.6471 19.5 18.4924V5.7244C19.5 5.5704 19.436 5.42906 19.308 5.3004C19.18 5.17173 19.0387 5.10773 18.884 5.1084H6.116C5.962 5.1084 5.82067 5.1724 5.692 5.3004C5.56333 5.4284 5.49933 5.56973 5.5 5.7244V18.4934C5.5 18.6467 5.564 18.7877 5.692 18.9164C5.82 19.0451 5.961 19.1091 6.115 19.1084" fill="#1D366F"/>
</svg>
