<svg width="100" height="101" viewBox="0 0 100 101" fill="none" xmlns="http://www.w3.org/2000/svg">
<path d="M33.3333 50.1H66.6667C67.2611 50.1 67.757 49.9013 68.1542 49.5041C68.5514 49.1069 68.75 48.6111 68.75 48.0166C68.75 47.4222 68.5514 46.9263 68.1542 46.5291C67.757 46.1319 67.2611 45.9333 66.6667 45.9333H33.3333C32.7417 45.9333 32.2458 46.1319 31.8458 46.5291C31.4486 46.9291 31.25 47.425 31.25 48.0166C31.25 48.6083 31.4486 49.1041 31.8458 49.5041C32.2431 49.9041 32.7389 50.1027 33.3333 50.1ZM33.3333 37.2791H66.6667C67.2611 37.2791 67.757 37.0805 68.1542 36.6833C68.5514 36.2861 68.75 35.7902 68.75 35.1958C68.75 34.6013 68.5514 34.1055 68.1542 33.7083C67.757 33.3111 67.2611 33.1125 66.6667 33.1125H33.3333C32.7417 33.1125 32.2458 33.3111 31.8458 33.7083C31.4458 34.1055 31.2472 34.6013 31.25 35.1958C31.2528 35.7902 31.4514 36.2861 31.8458 36.6833C32.2403 37.0805 32.7361 37.2791 33.3333 37.2791ZM23.4 83.8333C21.4806 83.8333 19.8792 83.1916 18.5958 81.9083C17.3125 80.625 16.6694 79.0222 16.6667 77.1V23.9C16.6667 21.9805 17.3097 20.3791 18.5958 19.0958C19.8819 17.8125 21.4833 17.1694 23.4 17.1666H76.6042C78.5208 17.1666 80.1222 17.8097 81.4083 19.0958C82.6945 20.3819 83.3361 21.9833 83.3333 23.9V77.1041C83.3333 79.0208 82.6917 80.6222 81.4083 81.9083C80.125 83.1944 78.5222 83.8361 76.6 83.8333H23.4ZM50 69.7333C52.2222 69.7333 54.2972 69.1736 56.225 68.0541C58.1528 66.9347 59.6278 65.3833 60.65 63.4C61.0111 62.7222 61.5181 62.2194 62.1708 61.8916C62.8236 61.5638 63.5319 61.4 64.2958 61.4H79.1667V23.9C79.1667 23.15 78.9264 22.5347 78.4458 22.0541C77.9653 21.5736 77.3514 21.3333 76.6042 21.3333H23.3958C22.6486 21.3333 22.0347 21.5736 21.5542 22.0541C21.0736 22.5347 20.8333 23.15 20.8333 23.9V61.4H35.7083C36.4694 61.4 37.1764 61.5638 37.8292 61.8916C38.482 62.2194 38.9889 62.7222 39.35 63.4C40.3694 65.3833 41.8444 66.9347 43.775 68.0541C45.7056 69.1736 47.7806 69.7361 50 69.7333Z" fill="#C0C5C7"/>
</svg>
