<svg width="25" height="24" viewBox="0 0 25 24" fill="none" xmlns="http://www.w3.org/2000/svg">
<path d="M13.9905 12.0002L9.74447 7.75423C9.65114 7.6609 9.60114 7.54623 9.59447 7.41023C9.58781 7.27423 9.63781 7.1529 9.74447 7.04623C9.85114 6.93956 9.96914 6.88623 10.0985 6.88623C10.2278 6.88623 10.3458 6.93956 10.4525 7.04623L14.8405 11.4352C14.9278 11.5219 14.9891 11.6109 15.0245 11.7022C15.0598 11.7936 15.0775 11.8929 15.0775 12.0002C15.0775 12.1076 15.0598 12.2069 15.0245 12.2982C14.9891 12.3896 14.9278 12.4789 14.8405 12.5662L10.4525 16.9542C10.3591 17.0476 10.2445 17.0976 10.1085 17.1042C9.97247 17.1109 9.85114 17.0609 9.74447 16.9542C9.63781 16.8476 9.58447 16.7296 9.58447 16.6002C9.58447 16.4709 9.63781 16.3529 9.74447 16.2462L13.9905 12.0002Z" fill="#4C5056"/>
</svg>
