<svg width="25" height="24" viewBox="0 0 25 24" fill="none" xmlns="http://www.w3.org/2000/svg">
<path d="M11.0076 12.0002L15.2536 7.75423C15.3469 7.6609 15.3969 7.54623 15.4036 7.41023C15.4102 7.27423 15.3602 7.1529 15.2536 7.04623C15.1469 6.93956 15.0289 6.88623 14.8996 6.88623C14.7702 6.88623 14.6522 6.93956 14.5456 7.04623L10.1576 11.4352C10.0702 11.5219 10.0089 11.6109 9.97357 11.7022C9.93824 11.7936 9.92057 11.8929 9.92057 12.0002C9.92057 12.1076 9.93824 12.2069 9.97357 12.2982C10.0089 12.3896 10.0702 12.4789 10.1576 12.5662L14.5456 16.9542C14.6389 17.0476 14.7536 17.0976 14.8896 17.1042C15.0256 17.1109 15.1469 17.0609 15.2536 16.9542C15.3602 16.8476 15.4136 16.7296 15.4136 16.6002C15.4136 16.4709 15.3602 16.3529 15.2536 16.2462L11.0076 12.0002Z" fill="#4C5056"/>
</svg>
