<svg width="24" height="25" viewBox="0 0 24 25" fill="none" xmlns="http://www.w3.org/2000/svg">
<path d="M13.292 12.5L9.046 8.25399C8.95267 8.16065 8.90267 8.04599 8.896 7.90999C8.88934 7.77399 8.93933 7.65265 9.046 7.54599C9.15267 7.43932 9.27067 7.38599 9.4 7.38599C9.52933 7.38599 9.64733 7.43932 9.754 7.54599L14.142 11.935C14.2293 12.0217 14.2907 12.1107 14.326 12.202C14.3613 12.2933 14.379 12.3927 14.379 12.5C14.379 12.6073 14.3613 12.7067 14.326 12.798C14.2907 12.8893 14.2293 12.9787 14.142 13.066L9.754 17.454C9.66067 17.5473 9.546 17.5973 9.41 17.604C9.274 17.6107 9.15267 17.5607 9.046 17.454C8.93933 17.3473 8.886 17.2293 8.886 17.1C8.886 16.9707 8.93933 16.8527 9.046 16.746L13.292 12.5Z" fill="#808993"/>
</svg>
