<svg width="37" height="37" viewBox="0 0 37 37" fill="none" xmlns="http://www.w3.org/2000/svg">
<path d="M18.5 17.5776C17.263 17.5776 16.2035 17.1366 15.3215 16.2546C14.4395 15.3726 13.999 14.3136 14 13.0776C14.001 11.8416 14.4415 10.7816 15.3215 9.89764C16.2015 9.01364 17.261 8.57414 18.5 8.57914C19.739 8.58414 20.7985 9.02414 21.6785 9.89914C22.5585 10.7741 22.999 11.8341 23 13.0791C23.001 14.3241 22.5605 15.3831 21.6785 16.2561C20.7965 17.1291 19.737 17.5686 18.5 17.5776ZM10.469 28.4241C9.10541 28.4241 8 27.3187 8 25.9551C8 25.3361 8.18 24.7571 8.54 24.2181C8.901 23.6781 9.386 23.2591 9.995 22.9611C11.411 22.2821 12.828 21.7731 14.246 21.4341C15.663 21.0941 17.081 20.9241 18.5 20.9241C19.919 20.9241 21.3375 21.0941 22.7555 21.4341C24.1735 21.7741 25.5895 22.2831 27.0035 22.9611C27.6135 23.2591 28.0985 23.6781 28.4585 24.2181C28.8195 24.7571 29 25.3361 29 25.9551C29 27.3187 27.8946 28.4241 26.531 28.4241H10.469Z" fill="#1D366F"/>
</svg>
