<svg width="37" height="37" viewBox="0 0 37 37" fill="none" xmlns="http://www.w3.org/2000/svg">
<path d="M8 27.0574V15.1931C8 14.8437 8.086 14.5129 8.258 14.2008C8.43 13.8887 8.667 13.6316 8.969 13.4296L17.0465 7.86325C17.4695 7.56933 17.9525 7.42236 18.4955 7.42236C19.0385 7.42236 19.5245 7.56933 19.9535 7.86325L28.031 13.4282C28.334 13.6302 28.571 13.8878 28.742 14.2008C28.914 14.5129 29 14.8437 29 15.1931V27.0574C29 27.4232 28.8505 27.7422 28.5515 28.0142C28.2525 28.2863 27.902 28.4224 27.5 28.4224H22.424C22.08 28.4224 21.792 28.3168 21.56 28.1057C21.328 27.8937 21.212 27.6316 21.212 27.3195V20.8099C21.212 20.4978 21.096 20.2362 20.864 20.0251C20.631 19.8131 20.343 19.7071 20 19.7071H17C16.657 19.7071 16.3695 19.8131 16.1375 20.0251C15.9045 20.2362 15.788 20.4978 15.788 20.8099V27.3208C15.788 27.633 15.672 27.8946 15.44 28.1057C15.208 28.3168 14.9205 28.4224 14.5775 28.4224H9.5C9.098 28.4224 8.7475 28.2863 8.4485 28.0142C8.1495 27.7422 8 27.4232 8 27.0574Z" fill="#1D366F" stroke="#1D366F" stroke-width="1.3"/>
</svg>
