<svg width="36" height="37" viewBox="0 0 36 37" fill="none" xmlns="http://www.w3.org/2000/svg">
<path d="M20.2995 20.7995L12.6214 23.8786L15.7005 16.2005L23.4715 13.0285M18 8C16.6211 8 15.2557 8.27159 13.9818 8.79926C12.7079 9.32694 11.5504 10.1004 10.5754 11.0754C8.60625 13.0445 7.5 15.7152 7.5 18.5C7.5 21.2848 8.60625 23.9555 10.5754 25.9246C11.5504 26.8996 12.7079 27.6731 13.9818 28.2007C15.2557 28.7284 16.6211 29 18 29C20.7848 29 23.4555 27.8938 25.4246 25.9246C27.3938 23.9555 28.5 21.2848 28.5 18.5C28.5 17.1211 28.2284 15.7557 27.7007 14.4818C27.1731 13.2079 26.3996 12.0504 25.4246 11.0754C24.4496 10.1004 23.2921 9.32694 22.0182 8.79926C20.7443 8.27159 19.3789 8 18 8ZM18 17.345C17.6937 17.345 17.3999 17.4667 17.1833 17.6833C16.9667 17.8999 16.845 18.1937 16.845 18.5C16.845 18.8063 16.9667 19.1001 17.1833 19.3167C17.3999 19.5333 17.6937 19.655 18 19.655C18.3063 19.655 18.6001 19.5333 18.8167 19.3167C19.0333 19.1001 19.155 18.8063 19.155 18.5C19.155 18.1937 19.0333 17.8999 18.8167 17.6833C18.6001 17.4667 18.3063 17.345 18 17.345Z" stroke="#808993" stroke-width="1.3" stroke-linejoin="round"/>
</svg>
