<svg width="37" height="37" viewBox="0 0 37 37" fill="none" xmlns="http://www.w3.org/2000/svg">
<path d="M7.57227 27.0574V15.1931C7.57227 14.8437 7.65827 14.5129 7.83027 14.2008C8.00227 13.8887 8.23927 13.6316 8.54127 13.4296L16.6188 7.86325C17.0418 7.56933 17.5248 7.42236 18.0678 7.42236C18.6108 7.42236 19.0968 7.56933 19.5258 7.86325L27.6033 13.4282C27.9063 13.6302 28.1433 13.8878 28.3143 14.2008C28.4863 14.5129 28.5723 14.8437 28.5723 15.1931V27.0574C28.5723 27.4232 28.4228 27.7422 28.1238 28.0142C27.8248 28.2863 27.4743 28.4224 27.0723 28.4224H21.9963C21.6523 28.4224 21.3643 28.3168 21.1323 28.1057C20.9003 27.8937 20.7843 27.6316 20.7843 27.3195V20.8099C20.7843 20.4978 20.6683 20.2362 20.4363 20.0251C20.2033 19.8131 19.9153 19.7071 19.5723 19.7071H16.5723C16.2293 19.7071 15.9418 19.8131 15.7098 20.0251C15.4768 20.2362 15.3603 20.4978 15.3603 20.8099V27.3208C15.3603 27.633 15.2443 27.8946 15.0123 28.1057C14.7803 28.3168 14.4928 28.4224 14.1498 28.4224H9.07227C8.67027 28.4224 8.31977 28.2863 8.02077 28.0142C7.72177 27.7422 7.57227 27.4232 7.57227 27.0574Z" stroke="#808993" stroke-width="1.3"/>
</svg>
