<svg width="37" height="37" viewBox="0 0 37 37" fill="none" xmlns="http://www.w3.org/2000/svg">
<path d="M18.5 17.5776C17.263 17.5776 16.2035 17.1366 15.3215 16.2546C14.4395 15.3726 13.999 14.3136 14 13.0776C14.001 11.8416 14.4415 10.7816 15.3215 9.89764C16.2015 9.01364 17.261 8.57414 18.5 8.57914C19.739 8.58414 20.7985 9.02414 21.6785 9.89914C22.5585 10.7741 22.999 11.8341 23 13.0791C23.001 14.3241 22.5605 15.3831 21.6785 16.2561C20.7965 17.1291 19.737 17.5686 18.5 17.5776ZM10.469 28.4241C9.10541 28.4241 8 27.3187 8 25.9551C8 25.3361 8.18 24.7571 8.54 24.2181C8.901 23.6781 9.386 23.2591 9.995 22.9611C11.411 22.2821 12.828 21.7731 14.246 21.4341C15.663 21.0941 17.081 20.9241 18.5 20.9241C19.919 20.9241 21.3375 21.0941 22.7555 21.4341C24.1735 21.7741 25.5895 22.2831 27.0035 22.9611C27.6135 23.2591 28.0985 23.6781 28.4585 24.2181C28.8195 24.7571 29 25.3361 29 25.9551C29 27.3187 27.8946 28.4241 26.531 28.4241H10.469ZM9.5 25.9551C9.5 26.4903 9.93384 26.9241 10.469 26.9241H26.531C27.0662 26.9241 27.5 26.4903 27.5 25.9551C27.5 25.6231 27.3925 25.3106 27.1775 25.0176C26.9635 24.7256 26.667 24.4786 26.288 24.2766C25.054 23.6786 23.781 23.2206 22.469 22.9026C21.157 22.5846 19.834 22.4251 18.5 22.4241C17.166 22.4231 15.843 22.5821 14.531 22.9011C13.219 23.2201 11.946 23.6781 10.712 24.2751C10.332 24.4771 10.0355 24.7241 9.8225 25.0161C9.6075 25.3091 9.5 25.6221 9.5 25.9551ZM18.5 16.0791C19.325 16.0791 20.0315 15.7851 20.6195 15.1971C21.2075 14.6091 21.501 13.9021 21.5 13.0761C21.499 12.2501 21.2055 11.5441 20.6195 10.9581C20.0335 10.3721 19.327 10.0781 18.5 10.0761C17.673 10.0741 16.967 10.3681 16.382 10.9581C15.797 11.5481 15.503 12.2541 15.5 13.0761C15.497 13.8981 15.791 14.6046 16.382 15.1956C16.973 15.7866 17.679 16.0801 18.5 16.0761" fill="#808993"/>
</svg>
