<svg width="37" height="37" viewBox="0 0 37 37" fill="none" xmlns="http://www.w3.org/2000/svg">
<path d="M20.3718 20.7995L12.6937 23.8786L15.7728 16.2005L23.5438 13.0285M18.0723 8C16.6934 8 15.328 8.27159 14.0541 8.79926C12.7802 9.32694 11.6227 10.1004 10.6476 11.0754C8.67851 13.0445 7.57227 15.7152 7.57227 18.5C7.57227 21.2848 8.67851 23.9555 10.6476 25.9246C11.6227 26.8996 12.7802 27.6731 14.0541 28.2007C15.328 28.7284 16.6934 29 18.0723 29C20.857 29 23.5278 27.8938 25.4969 25.9246C27.466 23.9555 28.5723 21.2848 28.5723 18.5C28.5723 17.1211 28.3007 15.7557 27.773 14.4818C27.2453 13.2079 26.4719 12.0504 25.4969 11.0754C24.5219 10.1004 23.3644 9.32694 22.0904 8.79926C20.8165 8.27159 19.4511 8 18.0723 8ZM18.0723 17.345C17.7659 17.345 17.4722 17.4667 17.2556 17.6833C17.039 17.8999 16.9173 18.1937 16.9173 18.5C16.9173 18.8063 17.039 19.1001 17.2556 19.3167C17.4722 19.5333 17.7659 19.655 18.0723 19.655C18.3786 19.655 18.6724 19.5333 18.889 19.3167C19.1056 19.1001 19.2273 18.8063 19.2273 18.5C19.2273 18.1937 19.1056 17.8999 18.889 17.6833C18.6724 17.4667 18.3786 17.345 18.0723 17.345Z" fill="#1D366F"/>
</svg>
