<svg width="87" height="22" viewBox="0 0 87 22" fill="none" xmlns="http://www.w3.org/2000/svg">
<path d="M24.963 8.49778H31.543C31.837 8.49778 32.005 8.66578 32.005 8.95978V9.99578C32.005 10.2898 31.837 10.4578 31.543 10.4578H26.195V13.4118H31.263C31.557 13.4118 31.725 13.5798 31.725 13.8738V14.9098C31.725 15.2038 31.557 15.3718 31.263 15.3718H26.195V19.0398C26.195 19.3338 26.027 19.5018 25.733 19.5018H24.627C24.333 19.5018 24.165 19.3338 24.165 19.0398V9.30978C24.165 8.77778 24.431 8.49778 24.963 8.49778ZM35.0937 16.1978C35.2897 17.3878 35.9337 17.8218 37.2077 17.8218C38.1177 17.8218 38.6357 17.5838 38.9157 17.1078C39.0417 16.8978 39.1397 16.8978 39.3777 16.8978H40.5537C40.8337 16.8978 40.9737 16.9678 40.9177 17.2478C40.6517 18.7598 39.1677 19.6558 37.1517 19.6558C34.5197 19.6558 32.9937 18.2558 32.9937 15.3018C32.9937 12.3478 34.4917 10.9338 37.0117 10.9338C39.4757 10.9338 40.9597 12.4038 40.9597 15.1478C40.9597 15.8478 40.5957 16.1978 39.8397 16.1978H35.0937ZM38.9157 14.5878C38.8737 13.2858 38.2297 12.7538 37.0397 12.7538C35.8357 12.7538 35.2057 13.2718 35.0657 14.5878H38.9157ZM44.5273 16.1978C44.7233 17.3878 45.3673 17.8218 46.6413 17.8218C47.5513 17.8218 48.0693 17.5838 48.3493 17.1078C48.4753 16.8978 48.5733 16.8978 48.8113 16.8978H49.9873C50.2673 16.8978 50.4073 16.9678 50.3513 17.2478C50.0853 18.7598 48.6013 19.6558 46.5853 19.6558C43.9533 19.6558 42.4273 18.2558 42.4273 15.3018C42.4273 12.3478 43.9253 10.9338 46.4453 10.9338C48.9093 10.9338 50.3933 12.4038 50.3933 15.1478C50.3933 15.8478 50.0293 16.1978 49.2733 16.1978H44.5273ZM48.3493 14.5878C48.3073 13.2858 47.6633 12.7538 46.4733 12.7538C45.2693 12.7538 44.6393 13.2718 44.4993 14.5878H48.3493ZM53.8629 15.2598C53.8629 16.7578 54.5489 17.7098 55.7529 17.7098C56.4109 17.7098 57.1389 17.4578 57.5589 17.1778V14.4618C57.5589 13.5238 56.8729 12.8658 55.6689 12.8658C54.5489 12.8658 53.8629 13.8318 53.8629 15.2598ZM57.5309 19.0398V18.6758C57.0409 19.2358 56.1309 19.6418 55.2769 19.6418C53.2049 19.6418 51.8609 17.8498 51.8609 15.2458C51.8609 12.6418 53.1349 10.9338 55.2209 10.9338C56.1729 10.9338 56.9709 11.2558 57.5309 11.8718V8.95978C57.5309 8.66578 57.6989 8.49778 57.9929 8.49778H59.0989C59.3929 8.49778 59.5609 8.66578 59.5609 8.95978V19.0398C59.5609 19.3338 59.3929 19.5018 59.0989 19.5018H57.9929C57.6989 19.5018 57.5309 19.3338 57.5309 19.0398ZM70.2802 18.7038C69.7202 19.3198 68.9362 19.6418 68.1102 19.6418C66.0102 19.6418 64.8902 18.4098 64.8902 16.0298V11.5358C64.8902 11.2418 65.0582 11.0738 65.3522 11.0738H66.4582C66.7522 11.0738 66.9202 11.2418 66.9202 11.5358V15.8758C66.9202 17.1218 67.4662 17.7098 68.5582 17.7098C69.6222 17.7098 70.2802 17.0518 70.2802 16.1138V11.5358C70.2802 11.2418 70.4482 11.0738 70.7422 11.0738H71.8482C72.1422 11.0738 72.3102 11.2418 72.3102 11.5358V19.0398C72.3102 19.3338 72.1422 19.5018 71.8482 19.5018H70.7422C70.4482 19.5018 70.2802 19.3338 70.2802 19.0398V18.7038ZM79.5465 15.3158C79.5465 13.8178 78.8605 12.8658 77.6565 12.8658C76.9985 12.8658 76.2705 13.1178 75.8505 13.3978V16.1138C75.8505 17.0518 76.5365 17.7098 77.7405 17.7098C78.8605 17.7098 79.5465 16.7438 79.5465 15.3158ZM75.8785 11.5358V11.8998C76.3685 11.3398 77.2785 10.9338 78.1325 10.9338C80.2045 10.9338 81.5485 12.7258 81.5485 15.3298C81.5485 17.9338 80.2745 19.6418 78.1885 19.6418C77.2365 19.6418 76.4385 19.3198 75.8785 18.7038V21.3358C75.8785 21.6298 75.7105 21.7978 75.4165 21.7978H74.3105C74.0165 21.7978 73.8485 21.6298 73.8485 21.3358V11.5358C73.8485 11.2418 74.0165 11.0738 74.3105 11.0738H75.4165C75.7105 11.0738 75.8785 11.2418 75.8785 11.5358Z" fill="#1A2C57"/>
<path d="M0 9.28204C0 4.20614 4.30068 0.0913086 9.60583 0.0913086H19.368V7.23836C19.368 9.77631 17.2176 11.8337 14.5651 11.8337H0V9.28204Z" fill="#5E74FF"/>
<path d="M0 11.8337L10.3551 11.8337V17.146C10.3551 19.684 8.20477 21.7414 5.5522 21.7414H0V11.8337Z" fill="#4644DC"/>
</svg>
