<svg width="36" height="36" viewBox="0 0 36 36" fill="none" xmlns="http://www.w3.org/2000/svg">
<path d="M18 22.872C17.839 22.872 17.69 22.8455 17.553 22.7925C17.416 22.7395 17.2825 22.6475 17.1525 22.5165L13.2225 18.588C13.0765 18.442 13.0005 18.27 12.9945 18.072C12.9885 17.874 13.0645 17.6925 13.2225 17.5275C13.3885 17.3615 13.567 17.277 13.758 17.274C13.95 17.271 14.1285 17.3525 14.2935 17.5185L17.25 20.475V8.25001C17.25 8.03701 17.3215 7.85851 17.4645 7.71451C17.6075 7.57051 17.786 7.49901 18 7.50001C18.214 7.50101 18.3925 7.57251 18.5355 7.71451C18.6785 7.85651 18.75 8.03501 18.75 8.25001V20.475L21.7065 17.5185C21.8525 17.3725 22.026 17.296 22.227 17.289C22.428 17.282 22.611 17.3615 22.776 17.5275C22.936 17.6925 23.0175 17.8695 23.0205 18.0585C23.0235 18.2475 22.9425 18.424 22.7775 18.588L18.8475 22.518C18.7175 22.648 18.584 22.7395 18.447 22.7925C18.311 22.8455 18.162 22.872 18 22.872ZM9.924 28.5C9.233 28.5 8.6565 28.269 8.1945 27.807C7.7325 27.345 7.501 26.768 7.5 26.076V23.1915C7.5 22.9785 7.5715 22.8005 7.7145 22.6575C7.8575 22.5145 8.036 22.4425 8.25 22.4415C8.464 22.4405 8.6425 22.5125 8.7855 22.6575C8.9285 22.8025 9 22.9805 9 23.1915V26.076C9 26.307 9.096 26.519 9.288 26.712C9.48 26.905 9.6915 27.001 9.9225 27H26.0775C26.3075 27 26.519 26.904 26.712 26.712C26.905 26.52 27.001 26.308 27 26.076V23.1915C27 22.9785 27.0715 22.8005 27.2145 22.6575C27.3575 22.5145 27.536 22.4425 27.75 22.4415C27.964 22.4405 28.1425 22.5125 28.2855 22.6575C28.4285 22.8025 28.5 22.9805 28.5 23.1915V26.076C28.5 26.767 28.269 27.3435 27.807 27.8055C27.345 28.2675 26.768 28.499 26.076 28.5H9.924Z" fill="#121212"/>
</svg>
