<svg width="36" height="36" viewBox="0 0 36 36" fill="none" xmlns="http://www.w3.org/2000/svg">
<path d="M13.674 25.5C12.983 25.5 12.4065 25.269 11.9445 24.807C11.4825 24.345 11.251 23.7685 11.25 23.0775V6.9225C11.25 6.2325 11.4815 5.656 11.9445 5.193C12.4075 4.73 12.984 4.499 13.674 4.5H25.3275C26.0175 4.5 26.594 4.731 27.057 5.193C27.52 5.655 27.751 6.2315 27.75 6.9225V23.0775C27.75 23.7675 27.519 24.3435 27.057 24.8055C26.595 25.2675 26.018 25.499 25.326 25.5H13.674ZM13.674 24H25.3275C25.5575 24 25.769 23.904 25.962 23.712C26.155 23.52 26.251 23.3085 26.25 23.0775V6.9225C26.25 6.6925 26.154 6.481 25.962 6.288C25.77 6.095 25.558 5.999 25.326 6H13.674C13.443 6 13.231 6.096 13.038 6.288C12.845 6.48 12.749 6.6915 12.75 6.9225V23.0775C12.75 23.3075 12.846 23.519 13.038 23.712C13.23 23.905 13.4415 24.001 13.6725 24M9.1725 30C8.4825 30 7.906 29.769 7.443 29.307C6.98 28.845 6.749 28.2685 6.75 27.5775V10.6725C6.75 10.4595 6.8215 10.2815 6.9645 10.1385C7.1075 9.9955 7.286 9.924 7.5 9.924C7.714 9.924 7.8925 9.9955 8.0355 10.1385C8.1785 10.2815 8.25 10.46 8.25 10.674V27.5775C8.25 27.8075 8.346 28.019 8.538 28.212C8.73 28.405 8.9415 28.501 9.1725 28.5H21.5775C21.7905 28.5 21.9685 28.5715 22.1115 28.7145C22.2545 28.8575 22.326 29.036 22.326 29.25C22.326 29.464 22.2545 29.6425 22.1115 29.7855C21.9685 29.9285 21.79 30 21.576 30H9.1725Z" fill="#121212"/>
</svg>
