<svg width="37" height="37" viewBox="0 0 37 37" fill="none" xmlns="http://www.w3.org/2000/svg">
<path d="M16.6347 32C16.1304 32 15.705 31.6246 15.6424 31.1242L15.2897 28.3067C15.2406 27.9146 14.963 27.5932 14.5982 27.4414C14.2977 27.3163 13.9838 27.1629 13.6565 26.981C13.3173 26.7922 13.009 26.5952 12.7317 26.3901C12.4179 26.1579 12.0059 26.0829 11.6467 26.2357L9.05096 27.34C8.58491 27.5382 8.04423 27.3568 7.79216 26.9175L5.87554 23.5775C5.62468 23.1404 5.73836 22.5849 6.14078 22.2814L8.41159 20.5689C8.70903 20.3446 8.85396 19.9739 8.8112 19.6038C8.80216 19.5256 8.79377 19.4466 8.78602 19.367C8.75602 19.079 8.74102 18.7995 8.74102 18.5285C8.74102 18.2765 8.75602 18.0115 8.78602 17.7335C8.79756 17.6189 8.81054 17.4984 8.82497 17.372C8.86573 17.0147 8.71809 16.6608 8.43083 16.4445L6.14509 14.7227C5.74079 14.4182 5.6278 13.8596 5.88196 13.4218L7.79202 10.1322C8.04471 9.69704 8.58145 9.51742 9.04518 9.71286L11.6454 10.8087C11.9898 10.9539 12.3839 10.8914 12.6852 10.6703C12.9947 10.4431 13.32 10.2315 13.661 10.0355C13.9776 9.85285 14.2892 9.69541 14.5958 9.56318C14.9475 9.41146 15.2122 9.09835 15.2621 8.71855L15.6363 5.86977C15.7016 5.3721 16.1258 5 16.6278 5H20.4648C20.9695 5 21.3951 5.3761 21.4572 5.87697L21.8138 8.75297C21.8605 9.12974 22.1185 9.44313 22.4683 9.5906C22.8119 9.73541 23.1271 9.89272 23.414 10.0625C23.7054 10.2349 24.0026 10.4362 24.3057 10.6662C24.6017 10.8908 24.9928 10.9554 25.3367 10.8147L28.059 9.7008C28.521 9.51176 29.0517 9.6924 29.3024 10.1241L31.2171 13.4207C31.4713 13.8583 31.3585 14.4167 30.9544 14.7214L28.6261 16.4769C28.3016 16.7216 28.1728 17.1369 28.2138 17.5412C28.2205 17.6073 28.2251 17.6719 28.2275 17.735C28.2375 17.994 28.2425 18.249 28.2425 18.5C28.2425 18.733 28.2325 18.9785 28.2125 19.2365C28.2052 19.3367 28.1941 19.4449 28.1793 19.5613C28.1311 19.9391 28.2735 20.3202 28.5783 20.5488L30.889 22.2819C31.293 22.5849 31.4077 23.1416 31.1563 23.5796L29.2428 26.9142C28.9899 27.3549 28.4468 27.5359 27.9801 27.335L25.3445 26.2005C24.997 26.051 24.5971 26.1135 24.2952 26.3415C23.9872 26.574 23.678 26.7822 23.3675 26.966C23.0814 27.1354 22.7881 27.2837 22.4877 27.411C22.1294 27.5628 21.8594 27.8805 21.8115 28.2666L21.4573 31.1231C21.3952 31.6239 20.9696 32 20.4649 32H16.6347ZM18.509 22.25C19.555 22.25 20.4415 21.8865 21.1685 21.1595C21.8955 20.4325 22.259 19.546 22.259 18.5C22.259 17.454 21.8955 16.5675 21.1685 15.8405C20.4415 15.1135 19.555 14.75 18.509 14.75C17.457 14.75 16.569 15.1135 15.845 15.8405C15.121 16.5675 14.759 17.454 14.759 18.5C14.759 19.546 15.121 20.4325 15.845 21.1595C16.569 21.8865 17.457 22.25 18.509 22.25Z" stroke="#1D366F" stroke-linejoin="round"/>
</svg>
