<svg width="24" height="24" viewBox="0 0 24 24" fill="none" xmlns="http://www.w3.org/2000/svg">
<path d="M13.292 12L9.04599 7.75399C8.95265 7.66065 8.90265 7.54599 8.89599 7.40999C8.88932 7.27399 8.93932 7.15265 9.04599 7.04599C9.15265 6.93932 9.27065 6.88599 9.39999 6.88599C9.52932 6.88599 9.64732 6.93932 9.75399 7.04599L14.142 11.435C14.2293 11.5217 14.2907 11.6107 14.326 11.702C14.3613 11.7933 14.379 11.8927 14.379 12C14.379 12.1073 14.3613 12.2067 14.326 12.298C14.2907 12.3893 14.2293 12.4787 14.142 12.566L9.75399 16.954C9.66065 17.0473 9.54599 17.0973 9.40999 17.104C9.27399 17.1107 9.15265 17.0607 9.04599 16.954C8.93932 16.8473 8.88599 16.7293 8.88599 16.6C8.88599 16.4707 8.93932 16.3527 9.04599 16.246L13.292 12Z" fill="#121212"/>
</svg>
