<svg width="82" height="83" viewBox="0 0 82 83" fill="none" xmlns="http://www.w3.org/2000/svg">
<circle cx="41" cy="41.5" r="34" fill="white"/>
<path fill-rule="evenodd" clip-rule="evenodd" d="M41.0001 7.3335C45.4869 7.33348 49.9299 8.2172 54.0752 9.93423C58.2205 11.6513 61.987 14.1679 65.1597 17.3406C68.3323 20.5133 70.8491 24.2798 72.5661 28.4251C74.2831 32.5704 75.1669 37.0133 75.1669 41.5001C75.1669 60.3699 59.8699 75.6669 41.0001 75.6669C22.1305 75.6669 6.8335 60.3699 6.8335 41.5001C6.8335 22.6305 22.1305 7.3335 41.0001 7.3335ZM44.4169 44.9169H37.5835C29.1248 44.9169 21.8629 50.0398 18.7307 57.3527C23.6866 64.302 31.8142 68.8335 41.0001 68.8335C50.186 68.8335 58.3136 64.302 63.2697 57.3522C60.1375 50.0398 52.8755 44.9169 44.4169 44.9169ZM41.0001 17.5835C35.3392 17.5835 30.7501 22.1726 30.7501 27.8335C30.7501 33.4944 35.3392 38.0835 41.0001 38.0835C46.661 38.0835 51.2501 33.4944 51.2501 27.8335C51.2501 22.1726 46.6612 17.5835 41.0001 17.5835Z" fill="#B3E9FF"/>
</svg>
