<svg width="36" height="36" viewBox="0 0 36 36" fill="none" xmlns="http://www.w3.org/2000/svg">
<path d="M17.9999 22.1199C17.8389 22.1199 17.6899 22.0934 17.5529 22.0404C17.4159 21.9874 17.2824 21.8954 17.1524 21.7644L10.5689 15.1824C10.4289 15.0424 10.3539 14.8704 10.3439 14.6664C10.3339 14.4624 10.4089 14.2804 10.5689 14.1204C10.7289 13.9604 10.9059 13.8804 11.0999 13.8804C11.2939 13.8804 11.4709 13.9604 11.6309 14.1204L17.9999 20.4894L24.3689 14.1204C24.5089 13.9804 24.6814 13.9054 24.8864 13.8954C25.0894 13.8854 25.2709 13.9604 25.4309 14.1204C25.5909 14.2804 25.6709 14.4574 25.6709 14.6514C25.6709 14.8454 25.5909 15.0224 25.4309 15.1824L18.8474 21.7644C18.7174 21.8954 18.5839 21.9874 18.4469 22.0404C18.3109 22.0934 18.1619 22.1199 17.9999 22.1199Z" fill="#808993"/>
</svg>
