<svg width="25" height="25" viewBox="0 0 25 25" fill="none" xmlns="http://www.w3.org/2000/svg">
<circle cx="12.8711" cy="12.8579" r="11.5" fill="#1D366F" stroke="#1D366F"/>
<path d="M10.8709 15.1697L17.1169 8.90367C17.2095 8.81034 17.3272 8.76367 17.4699 8.76367C17.6132 8.76367 17.7315 8.81001 17.8249 8.90267C17.9182 8.99534 17.9649 9.11334 17.9649 9.25667C17.9649 9.40001 17.9182 9.51834 17.8249 9.61167L11.4359 15.9807C11.2745 16.1427 11.0862 16.2237 10.8709 16.2237C10.6555 16.2237 10.4672 16.1427 10.3059 15.9807L7.91686 13.6107C7.82352 13.5187 7.77686 13.4013 7.77686 13.2587C7.77686 13.116 7.82319 12.9977 7.91586 12.9037C8.00852 12.8097 8.12652 12.763 8.26986 12.7637C8.41319 12.7643 8.53152 12.811 8.62486 12.9037L10.8709 15.1697Z" fill="white"/>
</svg>
