<svg width="33" height="33" viewBox="0 0 33 33" fill="none" xmlns="http://www.w3.org/2000/svg">
<path d="M16.5207 17.4441L9.52599 24.4388C9.40154 24.5633 9.24865 24.6299 9.06732 24.6388C8.88599 24.6477 8.72421 24.581 8.58199 24.4388C8.43976 24.2966 8.36865 24.1393 8.36865 23.9668C8.36865 23.7944 8.43976 23.637 8.58199 23.4948L15.5767 16.5001L8.58199 9.50548C8.45754 9.38103 8.39087 9.22814 8.38199 9.04681C8.3731 8.86548 8.43976 8.7037 8.58199 8.56148C8.72421 8.41926 8.88154 8.34814 9.05399 8.34814C9.22643 8.34814 9.38376 8.41926 9.52599 8.56148L16.5207 15.5561L23.5153 8.56148C23.6398 8.43703 23.7931 8.37037 23.9753 8.36148C24.1558 8.35259 24.3171 8.41926 24.4593 8.56148C24.6015 8.7037 24.6727 8.86103 24.6727 9.03348C24.6727 9.20592 24.6015 9.36326 24.4593 9.50548L17.4647 16.5001L24.4593 23.4948C24.5838 23.6193 24.6504 23.7726 24.6593 23.9548C24.6682 24.1353 24.6015 24.2966 24.4593 24.4388C24.3171 24.581 24.1598 24.6521 23.9873 24.6521C23.8149 24.6521 23.6575 24.581 23.5153 24.4388L16.5207 17.4441Z" fill="#121212"/>
</svg>
