<svg width="25" height="25" viewBox="0 0 25 25" fill="none" xmlns="http://www.w3.org/2000/svg">
<path d="M17.573 12.886H6.00001C5.85801 12.886 5.73901 12.8384 5.64301 12.743C5.54701 12.6477 5.49934 12.5287 5.50001 12.386C5.50067 12.2434 5.54834 12.1244 5.64301 12.029C5.73767 11.9337 5.85667 11.886 6.00001 11.886H17.573L13.838 8.15202C13.7407 8.05402 13.69 7.93903 13.686 7.80703C13.682 7.67503 13.7327 7.55403 13.838 7.44403C13.9487 7.33336 14.0677 7.27736 14.195 7.27603C14.3223 7.27469 14.4413 7.32869 14.552 7.43803L18.935 11.821C19.0217 11.9077 19.0827 11.9967 19.118 12.088C19.1533 12.1794 19.171 12.2787 19.171 12.386C19.171 12.4934 19.1533 12.5927 19.118 12.684C19.0827 12.7754 19.0217 12.8647 18.935 12.952L14.552 17.334C14.4547 17.4314 14.339 17.4824 14.205 17.487C14.071 17.4917 13.9487 17.4387 13.838 17.328C13.7313 17.218 13.6773 17.1 13.676 16.974C13.6747 16.848 13.7287 16.73 13.838 16.62L17.573 12.886Z" fill="#121212"/>
</svg>
