<svg width="24" height="24" viewBox="0 0 24 24" fill="none" xmlns="http://www.w3.org/2000/svg">
<path d="M13.2922 12.0002L9.04623 7.75423C8.9529 7.6609 8.9029 7.54623 8.89623 7.41023C8.88956 7.27423 8.93956 7.1529 9.04623 7.04623C9.1529 6.93956 9.2709 6.88623 9.40023 6.88623C9.52956 6.88623 9.64756 6.93956 9.75423 7.04623L14.1422 11.4352C14.2296 11.5219 14.2909 11.6109 14.3262 11.7022C14.3616 11.7936 14.3792 11.8929 14.3792 12.0002C14.3792 12.1076 14.3616 12.2069 14.3262 12.2982C14.2909 12.3896 14.2296 12.4789 14.1422 12.5662L9.75423 16.9542C9.6609 17.0476 9.54623 17.0976 9.41023 17.1042C9.27423 17.1109 9.1529 17.0609 9.04623 16.9542C8.93956 16.8476 8.88623 16.7296 8.88623 16.6002C8.88623 16.4709 8.93956 16.3529 9.04623 16.2462L13.2922 12.0002Z" fill="white"/>
</svg>
