<svg width="16" height="16" viewBox="0 0 16 16" fill="none" xmlns="http://www.w3.org/2000/svg">
<path d="M8.0002 13.118C9.25354 12.0273 10.2442 10.9182 10.9722 9.79067C11.7002 8.66311 12.0642 7.68756 12.0642 6.864C12.0642 5.64444 11.6782 4.63778 10.9062 3.844C10.1333 3.05067 9.16465 2.654 8.0002 2.654C6.83576 2.654 5.86709 3.05067 5.0942 3.844C4.32131 4.63733 3.93531 5.644 3.9362 6.864C3.9362 7.68711 4.3002 8.66267 5.0282 9.79067C5.7562 10.9187 6.74687 12.0278 8.0002 13.118ZM8.0002 13.704C7.89576 13.704 7.79131 13.6869 7.68687 13.6527C7.58243 13.6184 7.48642 13.5629 7.39887 13.486C6.92465 13.05 6.44376 12.5644 5.9562 12.0293C5.46909 11.4947 5.02687 10.9407 4.62954 10.3673C4.2322 9.794 3.90598 9.20889 3.65087 8.612C3.39576 8.01511 3.26865 7.43244 3.26954 6.864C3.26954 5.45378 3.72865 4.29067 4.64687 3.37467C5.56554 2.45822 6.68331 2 8.0002 2C9.31709 2 10.4349 2.45822 11.3535 3.37467C12.2718 4.29067 12.7309 5.45378 12.7309 6.864C12.7309 7.43244 12.6038 8.01311 12.3495 8.606C12.0953 9.19844 11.7713 9.78333 11.3775 10.3607C10.9842 10.9384 10.544 11.4927 10.0569 12.0233C9.56976 12.554 9.08865 13.0373 8.61354 13.4733C8.52865 13.5502 8.4322 13.608 8.3242 13.6467C8.21576 13.6849 8.10754 13.704 7.99954 13.704M8.0022 7.82067C8.29865 7.82067 8.55198 7.71489 8.7622 7.50333C8.97198 7.29222 9.07687 7.03822 9.07687 6.74133C9.07687 6.44444 8.97109 6.19111 8.75954 5.98133C8.54798 5.77156 8.29398 5.66667 7.99754 5.66667C7.70109 5.66667 7.44776 5.77244 7.23754 5.984C7.02731 6.19556 6.92243 6.44956 6.92287 6.746C6.92331 7.04244 7.02887 7.29578 7.23954 7.506C7.4502 7.71622 7.70443 7.82111 8.0022 7.82067Z" fill="#6075FF"/>
</svg>
