<svg width="24" height="25" viewBox="0 0 24 25" fill="none" xmlns="http://www.w3.org/2000/svg">
<path d="M9.5391 16.1985C7.94044 16.1985 6.58544 15.6432 5.47411 14.5325C4.36344 13.4225 3.80811 12.0679 3.80811 10.4685C3.80811 8.86919 4.36344 7.51419 5.47411 6.40353C6.58477 5.29286 7.93977 4.73786 9.5391 4.73853C11.1384 4.73919 12.4931 5.29453 13.6031 6.40453C14.7131 7.51453 15.2684 8.86919 15.2691 10.4685C15.2691 11.1632 15.1461 11.8355 14.9001 12.4855C14.6541 13.1355 14.3308 13.6915 13.9301 14.1535L19.8391 20.0605C19.9324 20.1539 19.9824 20.2689 19.9891 20.4055C19.9951 20.5409 19.9451 20.6619 19.8391 20.7685C19.7324 20.8752 19.6144 20.9285 19.4851 20.9285C19.3558 20.9285 19.2378 20.8752 19.1311 20.7685L13.2231 14.8605C12.7231 15.2865 12.1481 15.6162 11.4981 15.8495C10.8481 16.0829 10.1948 16.1995 9.53811 16.1995M9.53811 15.1995C10.8648 15.1995 11.9851 14.7429 12.8991 13.8295C13.8124 12.9162 14.2691 11.7959 14.2691 10.4685C14.2691 9.14119 13.8128 8.02119 12.9001 7.10853C11.9874 6.19586 10.8674 5.73919 9.54011 5.73853C8.21277 5.73853 7.09244 6.19519 6.17911 7.10853C5.26577 8.02186 4.80877 9.14186 4.80811 10.4685C4.80744 11.7952 5.26411 12.9152 6.17811 13.8285C7.09211 14.7419 8.21211 15.1985 9.53811 15.1985" fill="#808993"/>
</svg>
